ISO-10303-21;
HEADER;
FILE_DESCRIPTION (( 'STEP AP203' ),
    '1' );
FILE_NAME ('Õë.STEP',
    '2026-05-29T03:56:44',
    ( '' ),
    ( '' ),
    'SwSTEP 2.0',
    'SolidWorks 2023',
    '' );
FILE_SCHEMA (( 'CONFIG_CONTROL_DESIGN' ));
ENDSEC;

DATA;
#1 = CC_DESIGN_PERSON_AND_ORGANIZATION_ASSIGNMENT ( #58, #6, ( #115 ) ) ;
#2 = ORIENTED_EDGE ( 'NONE', *, *, #146, .F. ) ;
#3 = VERTEX_POINT ( 'NONE', #9 ) ;
#4 = PERSON ( 'æœª', 'æœª', 'æœª', ('æœª'), ('æœª'), ('æœª') ) ;
#5 = DIRECTION ( 'NONE',  ( 0.000000000000000000, 0.000000000000000000, 1.000000000000000000 ) ) ;
#6 = PERSON_AND_ORGANIZATION_ROLE ( 'design_supplier' ) ;
#7 = SECURITY_CLASSIFICATION_LEVEL ( 'unclassified' ) ;
#8 = APPROVAL_DATE_TIME ( #23, #78 ) ;
#9 = CARTESIAN_POINT ( 'NONE',  ( 3.673940397442059493E-14, 0.000000000000000000, 200.0000000000000000 ) ) ;
#10 = CARTESIAN_POINT ( 'NONE',  ( 0.000000000000000000, 1000.000000000000000, 0.000000000000000000 ) ) ;
#11 = FACE_OUTER_BOUND ( 'NONE', #29, .T. ) ;
#12 = DIRECTION ( 'NONE',  ( -0.000000000000000000, -1.000000000000000000, -0.000000000000000000 ) ) ;
#13 =( LENGTH_UNIT ( ) NAMED_UNIT ( * ) SI_UNIT ( .MICRO., .METRE. ) );
#14 = CALENDAR_DATE ( 2026, 29, 5 ) ;
#15 = APPLICATION_CONTEXT ( 'configuration controlled 3d designs of mechanical parts and assemblies' ) ;
#16 = PERSON_AND_ORGANIZATION_ROLE ( 'creator' ) ;
#17 = PERSON_AND_ORGANIZATION ( #4, #18 ) ;
#18 = ORGANIZATION ( 'æœª', 'æœª', '' ) ;
#19 = CARTESIAN_POINT ( 'NONE',  ( -1.224646799147353217E-14, 0.000000000000000000, -200.0000000000000000 ) ) ;
#20 = DIRECTION ( 'NONE',  ( 0.000000000000000000, 0.000000000000000000, -1.000000000000000000 ) ) ;
#21 = VERTEX_POINT ( 'NONE', #19 ) ;
#22 = APPROVAL_PERSON_ORGANIZATION ( #143, #78, #25 ) ;
#23 = DATE_AND_TIME ( #14, #77 ) ;
#24 = DATE_AND_TIME ( #46, #47 ) ;
#25 = APPROVAL_ROLE ( '' ) ;
#26 = APPROVAL_ROLE ( '' ) ;
#27 = DESIGN_CONTEXT ( 'detailed design', #15, 'design' ) ;
#28 = AXIS2_PLACEMENT_3D ( 'NONE', #70, #98, #5 ) ;
#29 = EDGE_LOOP ( 'NONE', ( #125, #2 ) ) ;
#30 = CARTESIAN_POINT ( 'NONE',  ( 0.000000000000000000, 0.000000000000000000, 0.000000000000000000 ) ) ;
#31 = EDGE_LOOP ( 'NONE', ( #139, #79, #93 ) ) ;
#32 = LINE ( 'NONE', #127, #137 ) ;
#33 =( GEOMETRIC_REPRESENTATION_CONTEXT ( 3 ) GLOBAL_UNCERTAINTY_ASSIGNED_CONTEXT ( ( #122 ) ) GLOBAL_UNIT_ASSIGNED_CONTEXT ( ( #13, #144, #96 ) ) REPRESENTATION_CONTEXT ( 'NONE', 'WORKASPACE' ) );
#34 = PERSON_AND_ORGANIZATION_ROLE ( 'creator' ) ;
#35 = MECHANICAL_CONTEXT ( 'NONE', #41, 'mechanical' ) ;
#36 = DIRECTION ( 'NONE',  ( 0.000000000000000000, 0.000000000000000000, 1.000000000000000000 ) ) ;
#37 = PERSON_AND_ORGANIZATION ( #4, #18 ) ;
#38 = DATE_TIME_ROLE ( 'classification_date' ) ;
#39 = SHAPE_DEFINITION_REPRESENTATION ( #112, #57 ) ;
#40 = CC_DESIGN_APPROVAL ( #141, ( #142 ) ) ;
#41 = APPLICATION_CONTEXT ( 'configuration controlled 3d designs of mechanical parts and assemblies' ) ;
#42 = AXIS2_PLACEMENT_3D ( 'NONE', #30, #43, #140 ) ;
#43 = DIRECTION ( 'NONE',  ( 0.000000000000000000, 1.000000000000000000, 0.000000000000000000 ) ) ;
#44 = FACE_OUTER_BOUND ( 'NONE', #94, .T. ) ;
#45 = CARTESIAN_POINT ( 'NONE',  ( 0.000000000000000000, 0.000000000000000000, 0.000000000000000000 ) ) ;
#46 = CALENDAR_DATE ( 2026, 29, 5 ) ;
#47 = LOCAL_TIME ( 11, 56, 44.00000000000000000, #105 ) ;
#48 = DATE_AND_TIME ( #56, #124 ) ;
#49 = CC_DESIGN_APPROVAL ( #108, ( #115 ) ) ;
#50 = PLANE ( 'NONE',  #111 ) ;
#51 = DIRECTION ( 'NONE',  ( 2.401729971581268256E-17, -0.9805806756909201116, 0.1961161351381840168 ) ) ;
#52 = LOCAL_TIME ( 11, 56, 44.00000000000000000, #110 ) ;
#53 = DIRECTION ( 'NONE',  ( 0.000000000000000000, 1.000000000000000000, 0.000000000000000000 ) ) ;
#54 = DIRECTION ( 'NONE',  ( 0.000000000000000000, 0.000000000000000000, -1.000000000000000000 ) ) ;
#55 = COORDINATED_UNIVERSAL_TIME_OFFSET ( 8, 0, .AHEAD. ) ;
#56 = CALENDAR_DATE ( 2026, 29, 5 ) ;
#57 = ADVANCED_BREP_SHAPE_REPRESENTATION ( '\X2\9488\X0\', ( #130, #90 ), #33 ) ;
#58 = PERSON_AND_ORGANIZATION ( #4, #18 ) ;
#59 = PERSON_AND_ORGANIZATION_ROLE ( 'classification_officer' ) ;
#60 = APPROVAL_PERSON_ORGANIZATION ( #134, #108, #84 ) ;
#61 = ADVANCED_FACE ( 'NONE', ( #63 ), #92, .T. ) ;
#62 = CC_DESIGN_DATE_AND_TIME_ASSIGNMENT ( #48, #116, ( #95 ) ) ;
#63 = FACE_OUTER_BOUND ( 'NONE', #31, .T. ) ;
#64 = LINE ( 'NONE', #10, #147 ) ;
#65 = CC_DESIGN_PERSON_AND_ORGANIZATION_ASSIGNMENT ( #17, #59, ( #142 ) ) ;
#66 = ORIENTED_EDGE ( 'NONE', *, *, #104, .F. ) ;
#67 = CONICAL_SURFACE ( 'NONE', #102, 200000.0000000000000, 0.1973955598498807473 ) ;
#68 = PERSON_AND_ORGANIZATION ( #4, #18 ) ;
#69 = CIRCLE ( 'NONE', #42, 200.0000000000000000 ) ;
#70 = CARTESIAN_POINT ( 'NONE',  ( 0.000000000000000000, 0.000000000000000000, 0.000000000000000000 ) ) ;
#71 = ADVANCED_FACE ( 'NONE', ( #11 ), #50, .F. ) ;
#72 = CALENDAR_DATE ( 2026, 29, 5 ) ;
#73 = APPROVAL_STATUS ( 'not_yet_approved' ) ;
#74 = APPROVAL_STATUS ( 'not_yet_approved' ) ;
#75 = APPROVAL_STATUS ( 'not_yet_approved' ) ;
#76 = PRODUCT ( '\X2\9488\X0\', '\X2\9488\X0\', '', ( #35 ) ) ;
#77 = LOCAL_TIME ( 11, 56, 44.00000000000000000, #85 ) ;
#78 = APPROVAL ( #73, 'æœª' ) ;
#79 = ORIENTED_EDGE ( 'NONE', *, *, #104, .T. ) ;
#80 = ORIENTED_EDGE ( 'NONE', *, *, #101, .T. ) ;
#81 = CC_DESIGN_PERSON_AND_ORGANIZATION_ASSIGNMENT ( #121, #16, ( #115 ) ) ;
#82 = CARTESIAN_POINT ( 'NONE',  ( 0.000000000000000000, -999000.0000000000000, 0.000000000000000000 ) ) ;
#83 = CIRCLE ( 'NONE', #28, 200.0000000000000000 ) ;
#84 = APPROVAL_ROLE ( '' ) ;
#85 = COORDINATED_UNIVERSAL_TIME_OFFSET ( 8, 0, .AHEAD. ) ;
#86 = CARTESIAN_POINT ( 'NONE',  ( 0.000000000000000000, 1000.000000000000000, 0.000000000000000000 ) ) ;
#87 = DATE_AND_TIME ( #100, #52 ) ;
#88 = PRODUCT_RELATED_PRODUCT_CATEGORY ( 'detail', '', ( #76 ) ) ;
#89 = CC_DESIGN_SECURITY_CLASSIFICATION ( #142, ( #115 ) ) ;
#90 = AXIS2_PLACEMENT_3D ( 'NONE', #45, #36, #109 ) ;
#91 = EDGE_CURVE ( 'NONE', #21, #3, #69, .T. ) ;
#92 = CONICAL_SURFACE ( 'NONE', #149, 200000.0000000000000, 0.1973955598498807473 ) ;
#93 = ORIENTED_EDGE ( 'NONE', *, *, #91, .T. ) ;
#94 = EDGE_LOOP ( 'NONE', ( #66, #80, #113 ) ) ;
#95 = PRODUCT_DEFINITION ( 'æœ', '', #115, #27 ) ;
#96 =( NAMED_UNIT ( * ) SI_UNIT ( $, .STERADIAN. ) SOLID_ANGLE_UNIT ( ) );
#97 = CC_DESIGN_PERSON_AND_ORGANIZATION_ASSIGNMENT ( #68, #34, ( #95 ) ) ;
#98 = DIRECTION ( 'NONE',  ( 0.000000000000000000, 1.000000000000000000, 0.000000000000000000 ) ) ;
#99 = APPROVAL_PERSON_ORGANIZATION ( #135, #141, #26 ) ;
#100 = CALENDAR_DATE ( 2026, 29, 5 ) ;
#101 = EDGE_CURVE ( 'NONE', #138, #3, #64, .T. ) ;
#102 = AXIS2_PLACEMENT_3D ( 'NONE', #132, #12, #54 ) ;
#103 = CARTESIAN_POINT ( 'NONE',  ( 0.000000000000000000, 0.000000000000000000, 0.000000000000000000 ) ) ;
#104 = EDGE_CURVE ( 'NONE', #138, #21, #32, .T. ) ;
#105 = COORDINATED_UNIVERSAL_TIME_OFFSET ( 8, 0, .AHEAD. ) ;
#106 = DIRECTION ( 'NONE',  ( 0.000000000000000000, -0.9805806756909201116, -0.1961161351381840168 ) ) ;
#107 = DATE_AND_TIME ( #72, #114 ) ;
#108 = APPROVAL ( #74, 'æœª' ) ;
#109 = DIRECTION ( 'NONE',  ( 1.000000000000000000, 0.000000000000000000, 0.000000000000000000 ) ) ;
#110 = COORDINATED_UNIVERSAL_TIME_OFFSET ( 8, 0, .AHEAD. ) ;
#111 = AXIS2_PLACEMENT_3D ( 'NONE', #103, #53, #148 ) ;
#112 = PRODUCT_DEFINITION_SHAPE ( 'NONE', 'NONE',  #95 ) ;
#113 = ORIENTED_EDGE ( 'NONE', *, *, #146, .T. ) ;
#114 = LOCAL_TIME ( 11, 56, 44.00000000000000000, #123 ) ;
#115 = PRODUCT_DEFINITION_FORMATION_WITH_SPECIFIED_SOURCE ( 'ä»', '', #76, .NOT_KNOWN. ) ;
#116 = DATE_TIME_ROLE ( 'creation_date' ) ;
#117 = APPLICATION_PROTOCOL_DEFINITION ( 'international standard', 'config_control_design', 1994, #15 ) ;
#118 = APPROVAL_DATE_TIME ( #107, #141 ) ;
#119 = APPROVAL_DATE_TIME ( #24, #108 ) ;
#120 = CC_DESIGN_PERSON_AND_ORGANIZATION_ASSIGNMENT ( #37, #129, ( #76 ) ) ;
#121 = PERSON_AND_ORGANIZATION ( #4, #18 ) ;
#122 = UNCERTAINTY_MEASURE_WITH_UNIT (LENGTH_MEASURE( 1.000000000000000082E-05 ), #13, 'distance_accuracy_value', 'NONE');
#123 = COORDINATED_UNIVERSAL_TIME_OFFSET ( 8, 0, .AHEAD. ) ;
#124 = LOCAL_TIME ( 11, 56, 44.00000000000000000, #55 ) ;
#125 = ORIENTED_EDGE ( 'NONE', *, *, #91, .F. ) ;
#126 = DIRECTION ( 'NONE',  ( -0.000000000000000000, -1.000000000000000000, -0.000000000000000000 ) ) ;
#127 = CARTESIAN_POINT ( 'NONE',  ( 0.000000000000000000, 1000.000000000000000, 0.000000000000000000 ) ) ;
#128 = CC_DESIGN_APPROVAL ( #78, ( #95 ) ) ;
#129 = PERSON_AND_ORGANIZATION_ROLE ( 'design_owner' ) ;
#130 = MANIFOLD_SOLID_BREP ( '·ÅÑù1', #133 ) ;
#131 = CC_DESIGN_DATE_AND_TIME_ASSIGNMENT ( #87, #38, ( #142 ) ) ;
#132 = CARTESIAN_POINT ( 'NONE',  ( 0.000000000000000000, -999000.0000000000000, 0.000000000000000000 ) ) ;
#133 = CLOSED_SHELL ( 'NONE', ( #136, #71, #61 ) ) ;
#134 = PERSON_AND_ORGANIZATION ( #4, #18 ) ;
#135 = PERSON_AND_ORGANIZATION ( #4, #18 ) ;
#136 = ADVANCED_FACE ( 'NONE', ( #44 ), #67, .T. ) ;
#137 = VECTOR ( 'NONE', #106, 1000000.000000000116 ) ;
#138 = VERTEX_POINT ( 'NONE', #86 ) ;
#139 = ORIENTED_EDGE ( 'NONE', *, *, #101, .F. ) ;
#140 = DIRECTION ( 'NONE',  ( 0.000000000000000000, 0.000000000000000000, 1.000000000000000000 ) ) ;
#141 = APPROVAL ( #75, 'æœª' ) ;
#142 = SECURITY_CLASSIFICATION ( '', '', #7 ) ;
#143 = PERSON_AND_ORGANIZATION ( #4, #18 ) ;
#144 =( NAMED_UNIT ( * ) PLANE_ANGLE_UNIT ( ) SI_UNIT ( $, .RADIAN. ) );
#145 = APPLICATION_PROTOCOL_DEFINITION ( 'international standard', 'config_control_design', 1994, #41 ) ;
#146 = EDGE_CURVE ( 'NONE', #3, #21, #83, .T. ) ;
#147 = VECTOR ( 'NONE', #51, 1000000.000000000116 ) ;
#148 = DIRECTION ( 'NONE',  ( 0.000000000000000000, -0.000000000000000000, 1.000000000000000000 ) ) ;
#149 = AXIS2_PLACEMENT_3D ( 'NONE', #82, #126, #20 ) ;
ENDSEC;
END-ISO-10303-21;
