ISO-10303-21;
HEADER;
FILE_DESCRIPTION (( 'STEP AP203' ),
    '1' );
FILE_NAME ('¼âÍ·É¡_µ¥Õë.STEP',
    '2026-05-29T06:49:38',
    ( '' ),
    ( '' ),
    'SwSTEP 2.0',
    'SolidWorks 2023',
    '' );
FILE_SCHEMA (( 'CONFIG_CONTROL_DESIGN' ));
ENDSEC;

DATA;
#1 = APPROVAL_PERSON_ORGANIZATION ( #174, #169, #102 ) ;
#2 = EDGE_LOOP ( 'NONE', ( #19, #197, #125 ) ) ;
#3 = EDGE_CURVE ( 'NONE', #182, #129, #107, .T. ) ;
#4 = DIRECTION ( 'NONE',  ( -0.000000000000000000, 1.000000000000000000, -0.000000000000000000 ) ) ;
#5 = ORGANIZATION ( 'æœª', 'æœª', '' ) ;
#6 = ORIENTED_EDGE ( 'NONE', *, *, #85, .F. ) ;
#7 = CARTESIAN_POINT ( 'NONE',  ( 0.000000000000000000, 270.3034082448887716, 0.000000000000000000 ) ) ;
#8 = DIRECTION ( 'NONE',  ( 0.000000000000000000, 0.000000000000000000, -1.000000000000000000 ) ) ;
#9 = FACE_OUTER_BOUND ( 'NONE', #95, .T. ) ;
#10 = ADVANCED_FACE ( 'NONE', ( #39 ), #164, .T. ) ;
#11 = FACE_OUTER_BOUND ( 'NONE', #92, .T. ) ;
#12 = PERSON_AND_ORGANIZATION ( #77, #5 ) ;
#13 = PRODUCT_DEFINITION_SHAPE ( 'NONE', 'NONE',  #63 ) ;
#14 = DATE_AND_TIME ( #104, #120 ) ;
#15 = APPROVAL_STATUS ( 'not_yet_approved' ) ;
#16 = CC_DESIGN_APPROVAL ( #225, ( #86 ) ) ;
#17 = MECHANICAL_CONTEXT ( 'NONE', #121, 'mechanical' ) ;
#18 = APPROVAL_PERSON_ORGANIZATION ( #50, #215, #31 ) ;
#19 = ORIENTED_EDGE ( 'NONE', *, *, #3, .F. ) ;
#20 = ORIENTED_EDGE ( 'NONE', *, *, #52, .T. ) ;
#21 = CIRCLE ( 'NONE', #208, 100.0000000000000000 ) ;
#22 = VERTEX_POINT ( 'NONE', #148 ) ;
#23 = DIRECTION ( 'NONE',  ( 0.000000000000000000, 0.000000000000000000, -1.000000000000000000 ) ) ;
#24 = ADVANCED_BREP_SHAPE_REPRESENTATION ( '\X2\5c1659344f1e\X0\_\X2\53559488\X0\', ( #193, #33 ), #38 ) ;
#25 = CYLINDRICAL_SURFACE ( 'NONE', #138, 100.0000000000000000 ) ;
#26 = CARTESIAN_POINT ( 'NONE',  ( 0.000000000000000000, 270.3034082448887716, -195.5216124805325251 ) ) ;
#27 = CARTESIAN_POINT ( 'NONE',  ( 0.000000000000000000, 270.3034082448887716, 0.000000000000000000 ) ) ;
#28 = FACE_OUTER_BOUND ( 'NONE', #128, .T. ) ;
#29 = PERSON_AND_ORGANIZATION_ROLE ( 'creator' ) ;
#30 = APPLICATION_PROTOCOL_DEFINITION ( 'international standard', 'config_control_design', 1994, #121 ) ;
#31 = APPROVAL_ROLE ( '' ) ;
#32 = APPROVAL_DATE_TIME ( #194, #169 ) ;
#33 = AXIS2_PLACEMENT_3D ( 'NONE', #101, #213, #49 ) ;
#34 = AXIS2_PLACEMENT_3D ( 'NONE', #149, #4, #144 ) ;
#35 = EDGE_CURVE ( 'NONE', #195, #219, #45, .T. ) ;
#36 = APPROVAL_ROLE ( '' ) ;
#37 = ORIENTED_EDGE ( 'NONE', *, *, #35, .F. ) ;
#38 =( GEOMETRIC_REPRESENTATION_CONTEXT ( 3 ) GLOBAL_UNCERTAINTY_ASSIGNED_CONTEXT ( ( #91 ) ) GLOBAL_UNIT_ASSIGNED_CONTEXT ( ( #184, #130, #111 ) ) REPRESENTATION_CONTEXT ( 'NONE', 'WORKASPACE' ) );
#39 = FACE_OUTER_BOUND ( 'NONE', #165, .T. ) ;
#40 = DIRECTION ( 'NONE',  ( -0.000000000000000000, 1.000000000000000000, -0.000000000000000000 ) ) ;
#41 = CARTESIAN_POINT ( 'NONE',  ( 0.000000000000000000, 0.000000000000000000, 0.000000000000000000 ) ) ;
#42 = CARTESIAN_POINT ( 'NONE',  ( 0.000000000000000000, 53594.10363948922168, 100.0000000000000000 ) ) ;
#43 = LINE ( 'NONE', #47, #109 ) ;
#44 = ADVANCED_FACE ( 'NONE', ( #110 ), #218, .T. ) ;
#45 = CIRCLE ( 'NONE', #87, 100.0000000000000000 ) ;
#46 = CARTESIAN_POINT ( 'NONE',  ( 0.000000000000000000, 270.3034082448887716, 0.000000000000000000 ) ) ;
#47 = CARTESIAN_POINT ( 'NONE',  ( 0.000000000000000000, 270.3034082448887716, -195.5216124805325251 ) ) ;
#48 = CC_DESIGN_PERSON_AND_ORGANIZATION_ASSIGNMENT ( #142, #51, ( #209 ) ) ;
#49 = DIRECTION ( 'NONE',  ( 1.000000000000000000, 0.000000000000000000, 0.000000000000000000 ) ) ;
#50 = PERSON_AND_ORGANIZATION ( #77, #5 ) ;
#51 = PERSON_AND_ORGANIZATION_ROLE ( 'design_owner' ) ;
#52 = EDGE_CURVE ( 'NONE', #166, #219, #210, .T. ) ;
#53 = APPLICATION_CONTEXT ( 'configuration controlled 3d designs of mechanical parts and assemblies' ) ;
#54 = COORDINATED_UNIVERSAL_TIME_OFFSET ( 8, 0, .AHEAD. ) ;
#55 = AXIS2_PLACEMENT_3D ( 'NONE', #171, #113, #167 ) ;
#56 = CARTESIAN_POINT ( 'NONE',  ( 0.000000000000000000, 270.3034082448887716, 0.000000000000000000 ) ) ;
#57 = EDGE_CURVE ( 'NONE', #219, #195, #21, .T. ) ;
#58 = AXIS2_PLACEMENT_3D ( 'NONE', #170, #97, #81 ) ;
#59 = CIRCLE ( 'NONE', #141, 100.0000000000000000 ) ;
#60 = CARTESIAN_POINT ( 'NONE',  ( 0.000000000000000000, 270.3034082448887716, 0.000000000000000000 ) ) ;
#61 = ORIENTED_EDGE ( 'NONE', *, *, #52, .F. ) ;
#62 = LOCAL_TIME ( 14, 49, 38.00000000000000000, #190 ) ;
#63 = PRODUCT_DEFINITION ( 'æœ', '', #86, #70 ) ;
#64 = DIRECTION ( 'NONE',  ( -0.000000000000000000, 1.000000000000000000, -0.000000000000000000 ) ) ;
#65 = CARTESIAN_POINT ( 'NONE',  ( 0.000000000000000000, 270.3034082448887716, 100.0000000000000000 ) ) ;
#66 = APPROVAL_STATUS ( 'not_yet_approved' ) ;
#67 = COORDINATED_UNIVERSAL_TIME_OFFSET ( 8, 0, .AHEAD. ) ;
#68 = CIRCLE ( 'NONE', #217, 195.5216124805325251 ) ;
#69 = PERSON_AND_ORGANIZATION ( #77, #5 ) ;
#70 = DESIGN_CONTEXT ( 'detailed design', #53, 'design' ) ;
#71 = ORIENTED_EDGE ( 'NONE', *, *, #139, .T. ) ;
#72 = ORIENTED_EDGE ( 'NONE', *, *, #89, .T. ) ;
#73 = ORIENTED_EDGE ( 'NONE', *, *, #3, .T. ) ;
#74 = CIRCLE ( 'NONE', #207, 100.0000000000000000 ) ;
#75 = ORIENTED_EDGE ( 'NONE', *, *, #139, .F. ) ;
#76 = CARTESIAN_POINT ( 'NONE',  ( 1.224646799147353217E-14, 270.3034082448887716, -100.0000000000000000 ) ) ;
#77 = PERSON ( 'æœª', 'æœª', 'æœª', ('æœª'), ('æœª'), ('æœª') ) ;
#78 = DIRECTION ( 'NONE',  ( 0.000000000000000000, 0.000000000000000000, 1.000000000000000000 ) ) ;
#79 = ADVANCED_FACE ( 'NONE', ( #11 ), #206, .F. ) ;
#80 = CARTESIAN_POINT ( 'NONE',  ( 1.224646799147353217E-14, 0.000000000000000000, -100.0000000000000000 ) ) ;
#81 = DIRECTION ( 'NONE',  ( 0.000000000000000000, 0.000000000000000000, 1.000000000000000000 ) ) ;
#82 = DIRECTION ( 'NONE',  ( -0.000000000000000000, 1.000000000000000000, -0.000000000000000000 ) ) ;
#83 = PERSON_AND_ORGANIZATION_ROLE ( 'creator' ) ;
#84 = COORDINATED_UNIVERSAL_TIME_OFFSET ( 8, 0, .AHEAD. ) ;
#85 = EDGE_CURVE ( 'NONE', #129, #216, #106, .T. ) ;
#86 = PRODUCT_DEFINITION_FORMATION_WITH_SPECIFIED_SOURCE ( 'ä»', '', #209, .NOT_KNOWN. ) ;
#87 = AXIS2_PLACEMENT_3D ( 'NONE', #60, #40, #214 ) ;
#88 = CALENDAR_DATE ( 2026, 29, 5 ) ;
#89 = EDGE_CURVE ( 'NONE', #22, #166, #59, .T. ) ;
#90 = CC_DESIGN_SECURITY_CLASSIFICATION ( #132, ( #86 ) ) ;
#91 = UNCERTAINTY_MEASURE_WITH_UNIT (LENGTH_MEASURE( 1.000000000000000082E-05 ), #184, 'distance_accuracy_value', 'NONE');
#92 = EDGE_LOOP ( 'NONE', ( #178, #180 ) ) ;
#93 = ORIENTED_EDGE ( 'NONE', *, *, #85, .T. ) ;
#94 = VECTOR ( 'NONE', #98, 1000000.000000000000 ) ;
#95 = EDGE_LOOP ( 'NONE', ( #108, #6 ) ) ;
#96 = DIRECTION ( 'NONE',  ( 0.000000000000000000, -1.000000000000000000, 0.000000000000000000 ) ) ;
#97 = DIRECTION ( 'NONE',  ( -0.000000000000000000, 1.000000000000000000, 0.000000000000000000 ) ) ;
#98 = DIRECTION ( 'NONE',  ( -0.000000000000000000, 1.000000000000000000, -0.000000000000000000 ) ) ;
#99 = DIRECTION ( 'NONE',  ( -0.000000000000000000, 1.000000000000000000, -0.000000000000000000 ) ) ;
#100 = CARTESIAN_POINT ( 'NONE',  ( 0.000000000000000000, 53594.10363948922168, 0.000000000000000000 ) ) ;
#101 = CARTESIAN_POINT ( 'NONE',  ( 0.000000000000000000, 0.000000000000000000, 0.000000000000000000 ) ) ;
#102 = APPROVAL_ROLE ( '' ) ;
#103 = CC_DESIGN_PERSON_AND_ORGANIZATION_ASSIGNMENT ( #69, #227, ( #132 ) ) ;
#104 = CALENDAR_DATE ( 2026, 29, 5 ) ;
#105 = DATE_TIME_ROLE ( 'creation_date' ) ;
#106 = CIRCLE ( 'NONE', #160, 195.5216124805325251 ) ;
#107 = LINE ( 'NONE', #199, #226 ) ;
#108 = ORIENTED_EDGE ( 'NONE', *, *, #211, .F. ) ;
#109 = VECTOR ( 'NONE', #203, 1000000.000000000000 ) ;
#110 = FACE_OUTER_BOUND ( 'NONE', #146, .T. ) ;
#111 =( NAMED_UNIT ( * ) SI_UNIT ( $, .STERADIAN. ) SOLID_ANGLE_UNIT ( ) );
#112 = PLANE ( 'NONE',  #58 ) ;
#113 = DIRECTION ( 'NONE',  ( -0.000000000000000000, 1.000000000000000000, 0.000000000000000000 ) ) ;
#114 = APPROVAL_PERSON_ORGANIZATION ( #176, #225, #36 ) ;
#115 = CLOSED_SHELL ( 'NONE', ( #44, #10, #79, #196, #228, #131 ) ) ;
#116 = CARTESIAN_POINT ( 'NONE',  ( 2.394449168884133451E-14, 270.3034082448887716, 195.5216124805325251 ) ) ;
#117 = DIRECTION ( 'NONE',  ( -0.000000000000000000, 1.000000000000000000, -0.000000000000000000 ) ) ;
#118 = CALENDAR_DATE ( 2026, 29, 5 ) ;
#119 = COORDINATED_UNIVERSAL_TIME_OFFSET ( 8, 0, .AHEAD. ) ;
#120 = LOCAL_TIME ( 14, 49, 38.00000000000000000, #67 ) ;
#121 = APPLICATION_CONTEXT ( 'configuration controlled 3d designs of mechanical parts and assemblies' ) ;
#122 = DATE_AND_TIME ( #162, #159 ) ;
#123 = APPLICATION_PROTOCOL_DEFINITION ( 'international standard', 'config_control_design', 1994, #53 ) ;
#124 = PERSON_AND_ORGANIZATION ( #77, #5 ) ;
#125 = ORIENTED_EDGE ( 'NONE', *, *, #211, .T. ) ;
#126 = EDGE_CURVE ( 'NONE', #182, #216, #43, .T. ) ;
#127 = CC_DESIGN_APPROVAL ( #169, ( #63 ) ) ;
#128 = EDGE_LOOP ( 'NONE', ( #61, #145, #71, #163 ) ) ;
#129 = VERTEX_POINT ( 'NONE', #116 ) ;
#130 =( NAMED_UNIT ( * ) PLANE_ANGLE_UNIT ( ) SI_UNIT ( $, .RADIAN. ) );
#131 = ADVANCED_FACE ( 'NONE', ( #133 ), #198, .T. ) ;
#132 = SECURITY_CLASSIFICATION ( '', '', #156 ) ;
#133 = FACE_OUTER_BOUND ( 'NONE', #2, .T. ) ;
#134 = DIRECTION ( 'NONE',  ( 0.000000000000000000, 0.000000000000000000, 1.000000000000000000 ) ) ;
#135 = AXIS2_PLACEMENT_3D ( 'NONE', #204, #96, #8 ) ;
#136 = DIRECTION ( 'NONE',  ( 0.000000000000000000, 0.000000000000000000, 1.000000000000000000 ) ) ;
#137 = DATE_AND_TIME ( #140, #62 ) ;
#138 = AXIS2_PLACEMENT_3D ( 'NONE', #100, #64, #78 ) ;
#139 = EDGE_CURVE ( 'NONE', #22, #195, #224, .T. ) ;
#140 = CALENDAR_DATE ( 2026, 29, 5 ) ;
#141 = AXIS2_PLACEMENT_3D ( 'NONE', #154, #205, #136 ) ;
#142 = PERSON_AND_ORGANIZATION ( #77, #5 ) ;
#143 = CC_DESIGN_DATE_AND_TIME_ASSIGNMENT ( #137, #212, ( #132 ) ) ;
#144 = DIRECTION ( 'NONE',  ( 0.000000000000000000, 0.000000000000000000, 1.000000000000000000 ) ) ;
#145 = ORIENTED_EDGE ( 'NONE', *, *, #181, .T. ) ;
#146 = EDGE_LOOP ( 'NONE', ( #220, #73, #93 ) ) ;
#147 = LOCAL_TIME ( 14, 49, 38.00000000000000000, #84 ) ;
#148 = CARTESIAN_POINT ( 'NONE',  ( 0.000000000000000000, 0.000000000000000000, 100.0000000000000000 ) ) ;
#149 = CARTESIAN_POINT ( 'NONE',  ( 0.000000000000000000, 53594.10363948922168, 0.000000000000000000 ) ) ;
#150 = FACE_BOUND ( 'NONE', #200, .T. ) ;
#151 = CC_DESIGN_APPROVAL ( #215, ( #132 ) ) ;
#152 = DIRECTION ( 'NONE',  ( 0.000000000000000000, 0.000000000000000000, 1.000000000000000000 ) ) ;
#153 = CC_DESIGN_PERSON_AND_ORGANIZATION_ASSIGNMENT ( #173, #229, ( #86 ) ) ;
#154 = CARTESIAN_POINT ( 'NONE',  ( 0.000000000000000000, 0.000000000000000000, 0.000000000000000000 ) ) ;
#155 = AXIS2_PLACEMENT_3D ( 'NONE', #56, #168, #23 ) ;
#156 = SECURITY_CLASSIFICATION_LEVEL ( 'unclassified' ) ;
#157 = SHAPE_DEFINITION_REPRESENTATION ( #13, #24 ) ;
#158 = DATE_AND_TIME ( #118, #147 ) ;
#159 = LOCAL_TIME ( 14, 49, 38.00000000000000000, #119 ) ;
#160 = AXIS2_PLACEMENT_3D ( 'NONE', #46, #82, #134 ) ;
#161 = APPROVAL_DATE_TIME ( #14, #215 ) ;
#162 = CALENDAR_DATE ( 2026, 29, 5 ) ;
#163 = ORIENTED_EDGE ( 'NONE', *, *, #57, .F. ) ;
#164 = CYLINDRICAL_SURFACE ( 'NONE', #34, 100.0000000000000000 ) ;
#165 = EDGE_LOOP ( 'NONE', ( #72, #20, #37, #75 ) ) ;
#166 = VERTEX_POINT ( 'NONE', #80 ) ;
#167 = DIRECTION ( 'NONE',  ( 0.000000000000000000, 0.000000000000000000, 1.000000000000000000 ) ) ;
#168 = DIRECTION ( 'NONE',  ( 0.000000000000000000, -1.000000000000000000, 0.000000000000000000 ) ) ;
#169 = APPROVAL ( #66, 'æœª' ) ;
#170 = CARTESIAN_POINT ( 'NONE',  ( 100.0000000000000000, 270.3034082448871800, 0.000000000000000000 ) ) ;
#171 = CARTESIAN_POINT ( 'NONE',  ( 0.000000000000000000, 0.000000000000000000, 0.000000000000000000 ) ) ;
#172 = APPROVAL_DATE_TIME ( #158, #225 ) ;
#173 = PERSON_AND_ORGANIZATION ( #77, #5 ) ;
#174 = PERSON_AND_ORGANIZATION ( #77, #5 ) ;
#175 = VECTOR ( 'NONE', #117, 1000000.000000000000 ) ;
#176 = PERSON_AND_ORGANIZATION ( #77, #5 ) ;
#177 = DIRECTION ( 'NONE',  ( 3.169619151431880189E-17, -0.9659258262890657587, 0.2588190451025301764 ) ) ;
#178 = ORIENTED_EDGE ( 'NONE', *, *, #89, .F. ) ;
#179 = ORIENTED_EDGE ( 'NONE', *, *, #57, .T. ) ;
#180 = ORIENTED_EDGE ( 'NONE', *, *, #181, .F. ) ;
#181 = EDGE_CURVE ( 'NONE', #166, #22, #74, .T. ) ;
#182 = VERTEX_POINT ( 'NONE', #188 ) ;
#183 = DIRECTION ( 'NONE',  ( 0.000000000000000000, 0.000000000000000000, 1.000000000000000000 ) ) ;
#184 =( LENGTH_UNIT ( ) NAMED_UNIT ( * ) SI_UNIT ( .MICRO., .METRE. ) );
#185 = DIRECTION ( 'NONE',  ( 0.000000000000000000, 0.000000000000000000, 1.000000000000000000 ) ) ;
#186 = LOCAL_TIME ( 14, 49, 38.00000000000000000, #54 ) ;
#187 = DIRECTION ( 'NONE',  ( -0.000000000000000000, 1.000000000000000000, -0.000000000000000000 ) ) ;
#188 = CARTESIAN_POINT ( 'NONE',  ( 0.000000000000000000, 1000.000000000000909, 0.000000000000000000 ) ) ;
#189 = CC_DESIGN_DATE_AND_TIME_ASSIGNMENT ( #122, #105, ( #63 ) ) ;
#190 = COORDINATED_UNIVERSAL_TIME_OFFSET ( 8, 0, .AHEAD. ) ;
#191 = APPROVAL_STATUS ( 'not_yet_approved' ) ;
#192 = CC_DESIGN_PERSON_AND_ORGANIZATION_ASSIGNMENT ( #12, #83, ( #86 ) ) ;
#193 = MANIFOLD_SOLID_BREP ( 'Ðý×ª1', #115 ) ;
#194 = DATE_AND_TIME ( #88, #186 ) ;
#195 = VERTEX_POINT ( 'NONE', #65 ) ;
#196 = ADVANCED_FACE ( 'NONE', ( #28 ), #25, .T. ) ;
#197 = ORIENTED_EDGE ( 'NONE', *, *, #126, .T. ) ;
#198 = CONICAL_SURFACE ( 'NONE', #135, 195.5216124805325251, 0.2617993877991591778 ) ;
#199 = CARTESIAN_POINT ( 'NONE',  ( 2.394449168884133451E-14, 270.3034082448887716, 195.5216124805325251 ) ) ;
#200 = EDGE_LOOP ( 'NONE', ( #202, #179 ) ) ;
#201 = CC_DESIGN_PERSON_AND_ORGANIZATION_ASSIGNMENT ( #124, #29, ( #63 ) ) ;
#202 = ORIENTED_EDGE ( 'NONE', *, *, #35, .T. ) ;
#203 = DIRECTION ( 'NONE',  ( 0.000000000000000000, -0.9659258262890657587, -0.2588190451025301764 ) ) ;
#204 = CARTESIAN_POINT ( 'NONE',  ( 0.000000000000000000, 270.3034082448887716, 0.000000000000000000 ) ) ;
#205 = DIRECTION ( 'NONE',  ( -0.000000000000000000, 1.000000000000000000, -0.000000000000000000 ) ) ;
#206 = PLANE ( 'NONE',  #55 ) ;
#207 = AXIS2_PLACEMENT_3D ( 'NONE', #41, #187, #152 ) ;
#208 = AXIS2_PLACEMENT_3D ( 'NONE', #27, #99, #183 ) ;
#209 = PRODUCT ( '\X2\5c1659344f1e\X0\_\X2\53559488\X0\', '\X2\5c1659344f1e\X0\_\X2\53559488\X0\', '', ( #17 ) ) ;
#210 = LINE ( 'NONE', #223, #94 ) ;
#211 = EDGE_CURVE ( 'NONE', #216, #129, #68, .T. ) ;
#212 = DATE_TIME_ROLE ( 'classification_date' ) ;
#213 = DIRECTION ( 'NONE',  ( 0.000000000000000000, 0.000000000000000000, 1.000000000000000000 ) ) ;
#214 = DIRECTION ( 'NONE',  ( 0.000000000000000000, 0.000000000000000000, 1.000000000000000000 ) ) ;
#215 = APPROVAL ( #191, 'æœª' ) ;
#216 = VERTEX_POINT ( 'NONE', #26 ) ;
#217 = AXIS2_PLACEMENT_3D ( 'NONE', #7, #222, #185 ) ;
#218 = CONICAL_SURFACE ( 'NONE', #155, 195.5216124805325251, 0.2617993877991591778 ) ;
#219 = VERTEX_POINT ( 'NONE', #76 ) ;
#220 = ORIENTED_EDGE ( 'NONE', *, *, #126, .F. ) ;
#221 = PRODUCT_RELATED_PRODUCT_CATEGORY ( 'detail', '', ( #209 ) ) ;
#222 = DIRECTION ( 'NONE',  ( -0.000000000000000000, 1.000000000000000000, -0.000000000000000000 ) ) ;
#223 = CARTESIAN_POINT ( 'NONE',  ( 1.224646799147353217E-14, 53594.10363948922168, -100.0000000000000000 ) ) ;
#224 = LINE ( 'NONE', #42, #175 ) ;
#225 = APPROVAL ( #15, 'æœª' ) ;
#226 = VECTOR ( 'NONE', #177, 1000000.000000000000 ) ;
#227 = PERSON_AND_ORGANIZATION_ROLE ( 'classification_officer' ) ;
#228 = ADVANCED_FACE ( 'NONE', ( #9, #150 ), #112, .F. ) ;
#229 = PERSON_AND_ORGANIZATION_ROLE ( 'design_supplier' ) ;
ENDSEC;
END-ISO-10303-21;
