ISO-10303-21;
HEADER;
FILE_DESCRIPTION (( 'STEP AP214' ),
    '1' );
FILE_NAME ('pifu.STEP',
    '2025-11-25T11:34:10',
    ( '' ),
    ( '' ),
    'SwSTEP 2.0',
    'SolidWorks 2023',
    '' );
FILE_SCHEMA (( 'AUTOMOTIVE_DESIGN' ));
ENDSEC;

DATA;
#1 = AXIS2_PLACEMENT_3D ( 'NONE', #152, #62, #32 ) ;
#2 = DIRECTION ( 'NONE',  ( 0.000000000000000000, -0.000000000000000000, 1.000000000000000000 ) ) ;
#3 = DIRECTION ( 'NONE',  ( 0.000000000000000000, 1.000000000000000000, 0.000000000000000000 ) ) ;
#4 = MECHANICAL_DESIGN_GEOMETRIC_PRESENTATION_REPRESENTATION (  '', ( #145 ), #128 ) ;
#5 = EDGE_LOOP ( 'NONE', ( #171, #52, #117, #156 ) ) ;
#6 = EDGE_CURVE ( 'NONE', #91, #180, #94, .T. ) ;
#7 = VECTOR ( 'NONE', #162, 1000.000000000000000 ) ;
#8 = ADVANCED_FACE ( 'NONE', ( #18 ), #158, .F. ) ;
#9 = DIRECTION ( 'NONE',  ( 1.000000000000000000, 0.000000000000000000, 0.000000000000000000 ) ) ;
#10 = LINE ( 'NONE', #66, #51 ) ;
#11 = DIRECTION ( 'NONE',  ( 1.387778780781445676E-16, 0.000000000000000000, 1.000000000000000000 ) ) ;
#12 = DIRECTION ( 'NONE',  ( 1.000000000000000000, 0.000000000000000000, -1.387778780781445676E-16 ) ) ;
#13 = DIRECTION ( 'NONE',  ( -1.000000000000000000, 0.000000000000000000, 1.387778780781445676E-16 ) ) ;
#14 = CARTESIAN_POINT ( 'NONE',  ( 99.99999999999995737, 100.0000000000000000, -100.0000000000000142 ) ) ;
#15 = CARTESIAN_POINT ( 'NONE',  ( -100.0000000000000142, 0.000000000000000000, 99.99999999999998579 ) ) ;
#16 = DIRECTION ( 'NONE',  ( 0.000000000000000000, 0.000000000000000000, 1.000000000000000000 ) ) ;
#17 = ADVANCED_FACE ( 'NONE', ( #105 ), #22, .F. ) ;
#18 = FACE_OUTER_BOUND ( 'NONE', #183, .T. ) ;
#19 = EDGE_CURVE ( 'NONE', #138, #108, #170, .T. ) ;
#20 = ORIENTED_EDGE ( 'NONE', *, *, #137, .F. ) ;
#21 = CARTESIAN_POINT ( 'NONE',  ( -100.0000000000000426, 100.0000000000000000, -100.0000000000000142 ) ) ;
#22 = PLANE ( 'NONE',  #150 ) ;
#23 = PLANE ( 'NONE',  #111 ) ;
#24 = VECTOR ( 'NONE', #57, 1000.000000000000000 ) ;
#25 =( LENGTH_UNIT ( ) NAMED_UNIT ( * ) SI_UNIT ( .MILLI., .METRE. ) );
#26 =( NAMED_UNIT ( * ) PLANE_ANGLE_UNIT ( ) SI_UNIT ( $, .RADIAN. ) );
#27 = LINE ( 'NONE', #112, #132 ) ;
#28 = PRODUCT_DEFINITION ( 'æœ', '', #30, #172 ) ;
#29 = CLOSED_SHELL ( 'NONE', ( #17, #161, #38, #148, #98, #8 ) ) ;
#30 = PRODUCT_DEFINITION_FORMATION_WITH_SPECIFIED_SOURCE ( 'ä»', '', #124, .NOT_KNOWN. ) ;
#31 = FILL_AREA_STYLE ('',( #182 ) ) ;
#32 = DIRECTION ( 'NONE',  ( 1.000000000000000000, 0.000000000000000000, 0.000000000000000000 ) ) ;
#33 = VECTOR ( 'NONE', #80, 1000.000000000000000 ) ;
#34 = ORIENTED_EDGE ( 'NONE', *, *, #137, .T. ) ;
#35 = ORIENTED_EDGE ( 'NONE', *, *, #55, .T. ) ;
#36 = ORIENTED_EDGE ( 'NONE', *, *, #168, .T. ) ;
#37 = DIRECTION ( 'NONE',  ( -1.387778780781445676E-16, 0.000000000000000000, -1.000000000000000000 ) ) ;
#38 = ADVANCED_FACE ( 'NONE', ( #71 ), #140, .F. ) ;
#39 = VERTEX_POINT ( 'NONE', #144 ) ;
#40 = DIRECTION ( 'NONE',  ( -0.000000000000000000, -1.000000000000000000, -0.000000000000000000 ) ) ;
#41 = DIRECTION ( 'NONE',  ( -1.387778780781445676E-16, -0.000000000000000000, -1.000000000000000000 ) ) ;
#42 = CARTESIAN_POINT ( 'NONE',  ( -100.0000000000000426, 100.0000000000000000, -100.0000000000000142 ) ) ;
#43 =( NAMED_UNIT ( * ) PLANE_ANGLE_UNIT ( ) SI_UNIT ( $, .RADIAN. ) );
#44 = ORIENTED_EDGE ( 'NONE', *, *, #19, .F. ) ;
#45 =( NAMED_UNIT ( * ) SI_UNIT ( $, .STERADIAN. ) SOLID_ANGLE_UNIT ( ) );
#46 = VECTOR ( 'NONE', #41, 1000.000000000000000 ) ;
#47 = CARTESIAN_POINT ( 'NONE',  ( -100.0000000000000426, 0.000000000000000000, -100.0000000000000142 ) ) ;
#48 = CARTESIAN_POINT ( 'NONE',  ( -100.0000000000000426, 100.0000000000000000, -100.0000000000000142 ) ) ;
#49 = DIRECTION ( 'NONE',  ( 0.000000000000000000, 1.000000000000000000, 0.000000000000000000 ) ) ;
#50 = EDGE_CURVE ( 'NONE', #39, #59, #10, .T. ) ;
#51 = VECTOR ( 'NONE', #9, 1000.000000000000000 ) ;
#52 = ORIENTED_EDGE ( 'NONE', *, *, #55, .F. ) ;
#53 = PRESENTATION_STYLE_ASSIGNMENT (( #114 ) ) ;
#54 = VECTOR ( 'NONE', #153, 1000.000000000000000 ) ;
#55 = EDGE_CURVE ( 'NONE', #143, #91, #121, .T. ) ;
#56 = DIRECTION ( 'NONE',  ( -1.000000000000000000, 0.000000000000000000, -0.000000000000000000 ) ) ;
#57 = DIRECTION ( 'NONE',  ( -1.387778780781445676E-16, -0.000000000000000000, -1.000000000000000000 ) ) ;
#58 = DIRECTION ( 'NONE',  ( -1.000000000000000000, -0.000000000000000000, -0.000000000000000000 ) ) ;
#59 = VERTEX_POINT ( 'NONE', #167 ) ;
#60 = ORIENTED_EDGE ( 'NONE', *, *, #178, .T. ) ;
#61 = EDGE_CURVE ( 'NONE', #39, #180, #125, .T. ) ;
#62 = DIRECTION ( 'NONE',  ( 0.000000000000000000, 0.000000000000000000, 1.000000000000000000 ) ) ;
#63 = ORIENTED_EDGE ( 'NONE', *, *, #101, .T. ) ;
#64 = ORIENTED_EDGE ( 'NONE', *, *, #154, .T. ) ;
#65 = VECTOR ( 'NONE', #146, 1000.000000000000000 ) ;
#66 = CARTESIAN_POINT ( 'NONE',  ( -100.0000000000000142, 100.0000000000000000, 99.99999999999998579 ) ) ;
#67 = DIRECTION ( 'NONE',  ( -0.000000000000000000, -1.000000000000000000, -0.000000000000000000 ) ) ;
#68 = ADVANCED_BREP_SHAPE_REPRESENTATION ( 'pifu', ( #89, #1 ), #107 ) ;
#69 = PRODUCT_DEFINITION_SHAPE ( 'NONE', 'NONE',  #28 ) ;
#70 = PRODUCT_RELATED_PRODUCT_CATEGORY ( 'part', '', ( #124 ) ) ;
#71 = FACE_OUTER_BOUND ( 'NONE', #181, .T. ) ;
#72 = CARTESIAN_POINT ( 'NONE',  ( 99.99999999999995737, 0.000000000000000000, -100.0000000000000142 ) ) ;
#73 = LINE ( 'NONE', #42, #65 ) ;
#74 =( NAMED_UNIT ( * ) SI_UNIT ( $, .STERADIAN. ) SOLID_ANGLE_UNIT ( ) );
#75 = ORIENTED_EDGE ( 'NONE', *, *, #168, .F. ) ;
#76 = ORIENTED_EDGE ( 'NONE', *, *, #131, .T. ) ;
#77 = PRODUCT_CONTEXT ( 'NONE', #177, 'mechanical' ) ;
#78 = DIRECTION ( 'NONE',  ( 0.000000000000000000, -0.000000000000000000, 1.000000000000000000 ) ) ;
#79 = CARTESIAN_POINT ( 'NONE',  ( 99.99999999999995737, 100.0000000000000000, -100.0000000000000142 ) ) ;
#80 = DIRECTION ( 'NONE',  ( -0.000000000000000000, -1.000000000000000000, -0.000000000000000000 ) ) ;
#81 = ORIENTED_EDGE ( 'NONE', *, *, #154, .F. ) ;
#82 = ORIENTED_EDGE ( 'NONE', *, *, #101, .F. ) ;
#83 = DIRECTION ( 'NONE',  ( 1.000000000000000000, 0.000000000000000000, 0.000000000000000000 ) ) ;
#84 = FACE_OUTER_BOUND ( 'NONE', #5, .T. ) ;
#85 = CARTESIAN_POINT ( 'NONE',  ( -100.0000000000000426, 100.0000000000000000, -100.0000000000000142 ) ) ;
#86 = VECTOR ( 'NONE', #106, 1000.000000000000000 ) ;
#87 = SURFACE_STYLE_FILL_AREA ( #31 ) ;
#88 = AXIS2_PLACEMENT_3D ( 'NONE', #21, #12, #37 ) ;
#89 = MANIFOLD_SOLID_BREP ( 'Í¹Ì¨-À­Éì1', #29 ) ;
#90 = COLOUR_RGB ( '',0.7921568627450980005, 0.8196078431372548767, 0.9333333333333333481 ) ;
#91 = VERTEX_POINT ( 'NONE', #99 ) ;
#92 = CARTESIAN_POINT ( 'NONE',  ( 99.99999999999995737, 100.0000000000000000, -100.0000000000000142 ) ) ;
#93 = VECTOR ( 'NONE', #83, 1000.000000000000000 ) ;
#94 = LINE ( 'NONE', #47, #54 ) ;
#95 = CARTESIAN_POINT ( 'NONE',  ( 99.99999999999998579, 0.000000000000000000, 99.99999999999998579 ) ) ;
#96 = DIRECTION ( 'NONE',  ( 1.000000000000000000, 0.000000000000000000, -0.000000000000000000 ) ) ;
#97 = CARTESIAN_POINT ( 'NONE',  ( -100.0000000000000142, 0.000000000000000000, 99.99999999999998579 ) ) ;
#98 = ADVANCED_FACE ( 'NONE', ( #100 ), #184, .T. ) ;
#99 = CARTESIAN_POINT ( 'NONE',  ( -100.0000000000000426, 0.000000000000000000, -100.0000000000000142 ) ) ;
#100 = FACE_OUTER_BOUND ( 'NONE', #109, .T. ) ;
#101 = EDGE_CURVE ( 'NONE', #59, #138, #165, .T. ) ;
#102 = VERTEX_POINT ( 'NONE', #95 ) ;
#103 = ORIENTED_EDGE ( 'NONE', *, *, #50, .T. ) ;
#104 = AXIS2_PLACEMENT_3D ( 'NONE', #176, #3, #2 ) ;
#105 = FACE_OUTER_BOUND ( 'NONE', #179, .T. ) ;
#106 = DIRECTION ( 'NONE',  ( -0.000000000000000000, -1.000000000000000000, -0.000000000000000000 ) ) ;
#107 =( GEOMETRIC_REPRESENTATION_CONTEXT ( 3 ) GLOBAL_UNCERTAINTY_ASSIGNED_CONTEXT ( ( #141 ) ) GLOBAL_UNIT_ASSIGNED_CONTEXT ( ( #25, #26, #45 ) ) REPRESENTATION_CONTEXT ( 'NONE', 'WORKASPACE' ) );
#108 = VERTEX_POINT ( 'NONE', #163 ) ;
#109 = EDGE_LOOP ( 'NONE', ( #63, #76, #64, #103 ) ) ;
#110 = CARTESIAN_POINT ( 'NONE',  ( 99.99999999999998579, 100.0000000000000000, 99.99999999999998579 ) ) ;
#111 = AXIS2_PLACEMENT_3D ( 'NONE', #85, #16, #96 ) ;
#112 = CARTESIAN_POINT ( 'NONE',  ( -100.0000000000000426, 0.000000000000000000, -100.0000000000000142 ) ) ;
#113 = LINE ( 'NONE', #159, #7 ) ;
#114 = SURFACE_STYLE_USAGE ( .BOTH. , #187 ) ;
#115 = VECTOR ( 'NONE', #67, 1000.000000000000000 ) ;
#116 = EDGE_CURVE ( 'NONE', #108, #91, #27, .T. ) ;
#117 = ORIENTED_EDGE ( 'NONE', *, *, #131, .F. ) ;
#118 = AXIS2_PLACEMENT_3D ( 'NONE', #155, #49, #78 ) ;
#119 = APPLICATION_PROTOCOL_DEFINITION ( 'draft international standard', 'automotive_design', 1998, #177 ) ;
#120 = ORIENTED_EDGE ( 'NONE', *, *, #178, .F. ) ;
#121 = LINE ( 'NONE', #48, #86 ) ;
#122 = EDGE_LOOP ( 'NONE', ( #36, #120, #134, #136 ) ) ;
#123 = ORIENTED_EDGE ( 'NONE', *, *, #6, .T. ) ;
#124 = PRODUCT ( 'pifu', 'pifu', '', ( #77 ) ) ;
#125 = LINE ( 'NONE', #142, #115 ) ;
#126 = DIRECTION ( 'NONE',  ( 0.000000000000000000, 0.000000000000000000, -1.000000000000000000 ) ) ;
#127 = CARTESIAN_POINT ( 'NONE',  ( 99.99999999999995737, 100.0000000000000000, -100.0000000000000142 ) ) ;
#128 =( GEOMETRIC_REPRESENTATION_CONTEXT ( 3 ) GLOBAL_UNCERTAINTY_ASSIGNED_CONTEXT ( ( #186 ) ) GLOBAL_UNIT_ASSIGNED_CONTEXT ( ( #147, #43, #74 ) ) REPRESENTATION_CONTEXT ( 'NONE', 'WORKASPACE' ) );
#129 = PLANE ( 'NONE',  #160 ) ;
#130 = LINE ( 'NONE', #15, #93 ) ;
#131 = EDGE_CURVE ( 'NONE', #138, #143, #113, .T. ) ;
#132 = VECTOR ( 'NONE', #58, 1000.000000000000000 ) ;
#133 = ORIENTED_EDGE ( 'NONE', *, *, #61, .F. ) ;
#134 = ORIENTED_EDGE ( 'NONE', *, *, #50, .F. ) ;
#135 = APPLICATION_CONTEXT ( 'automotive_design' ) ;
#136 = ORIENTED_EDGE ( 'NONE', *, *, #61, .T. ) ;
#137 = EDGE_CURVE ( 'NONE', #102, #108, #175, .T. ) ;
#138 = VERTEX_POINT ( 'NONE', #127 ) ;
#139 = SHAPE_DEFINITION_REPRESENTATION ( #69, #68 ) ;
#140 = PLANE ( 'NONE',  #88 ) ;
#141 = UNCERTAINTY_MEASURE_WITH_UNIT (LENGTH_MEASURE( 1.000000000000000082E-05 ), #25, 'distance_accuracy_value', 'NONE');
#142 = CARTESIAN_POINT ( 'NONE',  ( -100.0000000000000142, 100.0000000000000000, 99.99999999999998579 ) ) ;
#143 = VERTEX_POINT ( 'NONE', #149 ) ;
#144 = CARTESIAN_POINT ( 'NONE',  ( -100.0000000000000142, 100.0000000000000000, 99.99999999999998579 ) ) ;
#145 = STYLED_ITEM ( 'NONE', ( #53 ), #89 ) ;
#146 = DIRECTION ( 'NONE',  ( 1.387778780781445676E-16, 0.000000000000000000, 1.000000000000000000 ) ) ;
#147 =( LENGTH_UNIT ( ) NAMED_UNIT ( * ) SI_UNIT ( .MILLI., .METRE. ) );
#148 = ADVANCED_FACE ( 'NONE', ( #174 ), #129, .F. ) ;
#149 = CARTESIAN_POINT ( 'NONE',  ( -100.0000000000000426, 100.0000000000000000, -100.0000000000000142 ) ) ;
#150 = AXIS2_PLACEMENT_3D ( 'NONE', #92, #13, #11 ) ;
#151 = APPLICATION_PROTOCOL_DEFINITION ( 'draft international standard', 'automotive_design', 1998, #135 ) ;
#152 = CARTESIAN_POINT ( 'NONE',  ( 0.000000000000000000, 0.000000000000000000, 0.000000000000000000 ) ) ;
#153 = DIRECTION ( 'NONE',  ( 1.387778780781445676E-16, 0.000000000000000000, 1.000000000000000000 ) ) ;
#154 = EDGE_CURVE ( 'NONE', #143, #39, #73, .T. ) ;
#155 = CARTESIAN_POINT ( 'NONE',  ( 0.000000000000000000, 0.000000000000000000, 0.000000000000000000 ) ) ;
#156 = ORIENTED_EDGE ( 'NONE', *, *, #19, .T. ) ;
#157 = ORIENTED_EDGE ( 'NONE', *, *, #6, .F. ) ;
#158 = PLANE ( 'NONE',  #118 ) ;
#159 = CARTESIAN_POINT ( 'NONE',  ( -100.0000000000000426, 100.0000000000000000, -100.0000000000000142 ) ) ;
#160 = AXIS2_PLACEMENT_3D ( 'NONE', #173, #126, #56 ) ;
#161 = ADVANCED_FACE ( 'NONE', ( #84 ), #23, .F. ) ;
#162 = DIRECTION ( 'NONE',  ( -1.000000000000000000, -0.000000000000000000, -0.000000000000000000 ) ) ;
#163 = CARTESIAN_POINT ( 'NONE',  ( 99.99999999999995737, 0.000000000000000000, -100.0000000000000142 ) ) ;
#164 = VECTOR ( 'NONE', #40, 1000.000000000000000 ) ;
#165 = LINE ( 'NONE', #14, #24 ) ;
#166 = PRESENTATION_LAYER_ASSIGNMENT (  '', '', ( #145 ) ) ;
#167 = CARTESIAN_POINT ( 'NONE',  ( 99.99999999999998579, 100.0000000000000000, 99.99999999999998579 ) ) ;
#168 = EDGE_CURVE ( 'NONE', #180, #102, #130, .T. ) ;
#169 = ORIENTED_EDGE ( 'NONE', *, *, #116, .F. ) ;
#170 = LINE ( 'NONE', #79, #33 ) ;
#171 = ORIENTED_EDGE ( 'NONE', *, *, #116, .T. ) ;
#172 = PRODUCT_DEFINITION_CONTEXT ( 'detailed design', #135, 'design' ) ;
#173 = CARTESIAN_POINT ( 'NONE',  ( -100.0000000000000142, 100.0000000000000000, 99.99999999999998579 ) ) ;
#174 = FACE_OUTER_BOUND ( 'NONE', #122, .T. ) ;
#175 = LINE ( 'NONE', #72, #46 ) ;
#176 = CARTESIAN_POINT ( 'NONE',  ( 0.000000000000000000, 100.0000000000000000, 0.000000000000000000 ) ) ;
#177 = APPLICATION_CONTEXT ( 'automotive_design' ) ;
#178 = EDGE_CURVE ( 'NONE', #59, #102, #185, .T. ) ;
#179 = EDGE_LOOP ( 'NONE', ( #34, #44, #82, #60 ) ) ;
#180 = VERTEX_POINT ( 'NONE', #97 ) ;
#181 = EDGE_LOOP ( 'NONE', ( #123, #133, #81, #35 ) ) ;
#182 = FILL_AREA_STYLE_COLOUR ( '', #90 ) ;
#183 = EDGE_LOOP ( 'NONE', ( #20, #75, #157, #169 ) ) ;
#184 = PLANE ( 'NONE',  #104 ) ;
#185 = LINE ( 'NONE', #110, #164 ) ;
#186 = UNCERTAINTY_MEASURE_WITH_UNIT (LENGTH_MEASURE( 1.000000000000000082E-05 ), #147, 'distance_accuracy_value', 'NONE');
#187 = SURFACE_SIDE_STYLE ('',( #87 ) ) ;
ENDSEC;
END-ISO-10303-21;
